<svg width="45" height="45" viewBox="0 0 45 45" fill="none" xmlns="http://www.w3.org/2000/svg">
<path d="M33.9226 10.4178L35.512 10.8338C39.5675 11.8954 42.1209 15.9018 41.3705 20.0262C41.12 21.4028 41.1119 22.8125 41.3464 24.1918L41.3769 24.3713C42.1477 28.9054 39.3964 33.2969 34.9802 34.5813L33.6715 34.962C31.8764 35.4841 30.1997 36.3495 28.7342 37.5103C25.0314 40.4434 19.8216 40.5282 16.0253 37.7172L15.3075 37.1856C14.0259 36.2367 12.5919 35.5132 11.067 35.0464L9.77807 34.6518C5.55715 33.3596 3.01487 29.0655 3.91192 24.7433L3.95538 24.5339C4.28774 22.9325 4.27623 21.2788 3.92161 19.6822C3.04943 15.7554 5.40889 11.8342 9.28689 10.7658L10.8338 10.3396C12.5093 9.87791 14.0776 9.09084 15.449 8.02327L16.1772 7.4564C19.8412 4.60427 25.0132 4.6955 28.5863 7.67096C30.1405 8.96525 31.9645 9.9052 33.9226 10.4178Z" stroke="#72ED0C" stroke-width="4"/>
<path d="M32.2446 21.9363L32.1346 22.2074V22.4999C32.1346 26.727 28.0479 30.5338 22.5 30.5338C16.9521 30.5338 12.8654 26.727 12.8654 22.4999V22.2648L12.7935 22.041C12.3723 20.7305 12.146 19.747 12.0593 19.0214C11.9702 18.275 12.0455 17.9314 12.0925 17.8133C12.0927 17.8126 12.093 17.8119 12.0932 17.8113C12.191 17.7825 12.4313 17.7516 12.9017 17.8138C13.696 17.9189 14.6512 18.2052 15.8254 18.5572C16.1608 18.6577 16.5141 18.7636 16.8866 18.8722C18.4552 19.3293 20.2922 19.805 22.0634 19.805C23.7657 19.805 25.6256 19.4648 27.2726 19.1461C27.4244 19.1167 27.5741 19.0876 27.7217 19.0589C29.2527 18.7612 30.5557 18.5078 31.6021 18.4693C32.1667 18.4485 32.5297 18.4985 32.7449 18.5713C32.9137 18.6285 32.9267 18.6735 32.9281 18.6784C32.9282 18.6787 32.9282 18.6788 32.9282 18.6789C32.9505 18.7213 33.0387 18.9363 32.9671 19.5041C32.8961 20.0666 32.6825 20.8564 32.2446 21.9363Z" stroke="#72ED0C" stroke-width="3"/>
</svg>
