<svg width="15" height="18" viewBox="0 0 15 18" fill="none" xmlns="http://www.w3.org/2000/svg">
<g clip-path="url(#clip0_50_15)">
<path d="M4.52679 0.592634C4.70759 0.227678 5.07924 0 5.48438 0H9.51562C9.92076 0 10.2924 0.227678 10.4732 0.592634L10.7143 1.07143H13.9286C14.5212 1.07143 15 1.55022 15 2.14286C15 2.73549 14.5212 3.21428 13.9286 3.21428H1.07143C0.478795 3.21428 0 2.73549 0 2.14286C0 1.55022 0.478795 1.07143 1.07143 1.07143H4.28571L4.52679 0.592634ZM1.07143 4.28571H13.9286V15C13.9286 16.1819 12.9676 17.1428 11.7857 17.1428H3.21429C2.03237 17.1428 1.07143 16.1819 1.07143 15V4.28571ZM4.28571 6.42857C3.99107 6.42857 3.75 6.66964 3.75 6.96428V14.4643C3.75 14.7589 3.99107 15 4.28571 15C4.58036 15 4.82143 14.7589 4.82143 14.4643V6.96428C4.82143 6.66964 4.58036 6.42857 4.28571 6.42857ZM7.5 6.42857C7.20536 6.42857 6.96429 6.66964 6.96429 6.96428V14.4643C6.96429 14.7589 7.20536 15 7.5 15C7.79464 15 8.03571 14.7589 8.03571 14.4643V6.96428C8.03571 6.66964 7.79464 6.42857 7.5 6.42857ZM10.7143 6.42857C10.4196 6.42857 10.1786 6.66964 10.1786 6.96428V14.4643C10.1786 14.7589 10.4196 15 10.7143 15C11.0089 15 11.25 14.7589 11.25 14.4643V6.96428C11.25 6.66964 11.0089 6.42857 10.7143 6.42857Z" fill="white"/>
</g>
<defs>
<clipPath id="clip0_50_15">
<rect width="15" height="17.1428" fill="white"/>
</clipPath>
</defs>
</svg>
